<svg width="90" height="20" viewBox="0 0 90 20" fill="none" xmlns="http://www.w3.org/2000/svg">
<g clip-path="url(#clip0_59756_951)">
<path fill-rule="evenodd" clip-rule="evenodd" d="M66.2811 7.9054L64.7575 8.02574V15.7171C64.7575 16.8391 65.288 17.3996 66.3499 17.3996C66.5362 17.3996 66.7334 17.3829 66.9415 17.3486C67.1497 17.3143 67.3265 17.2694 67.4713 17.2138L67.2929 16.1452C67.1614 16.1826 67.0259 16.2046 66.8891 16.2107C66.6778 16.2107 66.5244 16.1543 66.4274 16.0401C66.3304 15.925 66.2811 15.7293 66.2811 15.452V7.9054ZM70.0927 7.9054L68.5692 8.02574V15.7171C68.5692 16.8391 69.0997 17.3996 70.1616 17.3996C70.3478 17.3996 70.545 17.3829 70.7532 17.3486C70.9613 17.3143 71.139 17.2694 71.2837 17.2138L71.1037 16.1452C70.9726 16.1826 70.8373 16.2046 70.7007 16.2107C70.4895 16.2107 70.3361 16.1543 70.2391 16.0401C70.142 15.925 70.0927 15.7293 70.0927 15.452V7.9054ZM53.472 8.42409C52.5956 8.42409 51.8052 8.597 51.101 8.94051C50.3991 9.28187 49.8177 9.81913 49.4311 10.4837C49.0218 11.1692 48.8183 12.0032 48.8183 12.9842C48.8183 13.8891 48.996 14.6736 49.3512 15.3378C49.6902 15.9843 50.2214 16.5165 50.8756 16.865C51.536 17.2214 52.3178 17.3996 53.2185 17.3996C53.7764 17.3996 54.3375 17.3387 54.9009 17.2138C55.4643 17.0889 56.0027 16.9091 56.5152 16.6761V12.9957H52.9524V14.1549H55.0276V15.922C54.7679 16.0149 54.4877 16.085 54.1904 16.1337C53.893 16.1817 53.5956 16.2046 53.2983 16.2046C52.641 16.2046 52.0971 16.0652 51.6652 15.7841C51.2363 15.5052 50.9058 15.1048 50.7183 14.6371C50.5172 14.1542 50.417 13.6012 50.417 12.9781C50.417 12.266 50.5462 11.6604 50.8067 11.1577C51.0673 10.655 51.432 10.2727 51.9007 10.0129C52.3702 9.75397 52.9164 9.62449 53.5409 9.62449C54.2796 9.62449 55.0558 9.81415 55.8696 10.1919L56.2609 9.04486C55.8423 8.84715 55.4028 8.69442 54.9502 8.58938C54.4657 8.47711 53.97 8.42163 53.472 8.42409ZM29.0918 8.53835L25.572 17.2785H27.1527L28.0323 14.9387H31.6272L32.5255 17.2785H34.1852L30.5848 8.53911L29.0918 8.53835ZM29.8172 10.1013C29.9455 10.5195 30.0754 10.9011 30.2069 11.2469L31.1686 13.7505H28.4846L29.4385 11.2347C29.5746 10.8485 29.7014 10.4707 29.8172 10.1013ZM38.4437 10.6497C37.6753 10.6497 36.9937 10.9658 36.3982 11.5972C36.3779 11.3199 36.3408 11.0439 36.2871 10.7708H34.8488C34.8817 11.3497 34.8989 11.8813 34.8989 12.3635V20L36.4295 19.8736V17.1826C36.8617 17.3294 37.3161 17.4045 37.7739 17.405C38.4022 17.405 38.9562 17.2679 39.4351 16.9906C39.9148 16.7126 40.2865 16.3036 40.5526 15.7643C40.8186 15.2258 40.9532 14.5776 40.9532 13.8175C40.9532 13.0893 40.8359 12.4884 40.6035 12.0154C40.3695 11.5431 40.0635 11.1981 39.6832 10.9787C39.3087 10.761 38.88 10.6472 38.4437 10.6497ZM45.4786 10.6497C44.7101 10.6497 44.027 10.9658 43.4323 11.5972C43.4118 11.3198 43.3744 11.0439 43.3204 10.7708H41.8837C41.9165 11.3497 41.933 11.8813 41.933 12.3635V20L43.4643 19.8736V17.1826C43.8968 17.3294 44.3515 17.4046 44.8095 17.405C45.4371 17.405 45.9903 17.2679 46.4684 16.9906C46.9481 16.7126 47.3214 16.3036 47.5874 15.7643C47.8543 15.2258 47.9881 14.5776 47.9881 13.8175C47.9881 13.0893 47.8715 12.4884 47.6383 12.0154C47.4043 11.5431 47.0968 11.1981 46.7165 10.9787C46.3425 10.761 45.9143 10.6472 45.4786 10.6497ZM60.6555 10.6497C60.1798 10.6476 59.7054 10.6982 59.2415 10.8005C58.7955 10.9011 58.4355 11.0115 58.1624 11.1318L58.405 12.218C58.7196 12.0776 59.0471 11.9664 59.3832 11.8859C59.7254 11.7976 60.0777 11.7512 60.4317 11.748C60.9028 11.748 61.2635 11.8653 61.5155 12.1007C61.7675 12.3353 61.8935 12.7405 61.8935 13.3156V13.442C61.4915 13.386 61.0859 13.3583 60.6798 13.359C59.589 13.359 58.8096 13.5463 58.3424 13.9226C57.876 14.2989 57.6428 14.8016 57.6428 15.433C57.6428 15.8595 57.7352 16.2198 57.9206 16.5161C58.1069 16.8116 58.3588 17.0325 58.6742 17.1788C58.9903 17.3258 59.3393 17.3996 59.7243 17.3996C60.1993 17.3996 60.6258 17.3037 61.0037 17.1125C61.3817 16.9221 61.69 16.6898 61.9256 16.4163C61.9412 16.7378 61.9772 17.0257 62.0304 17.2785H63.4671C63.4396 16.871 63.4235 16.4629 63.4186 16.0545V13.4679C63.4186 12.7641 63.3051 12.2028 63.0774 11.7869C62.8505 11.3702 62.5351 11.077 62.1306 10.9056C61.7252 10.735 61.233 10.6497 60.6555 10.6497ZM74.7972 10.6497C74.19 10.6497 73.6532 10.7868 73.1892 11.061C72.7243 11.3337 72.3613 11.7305 72.1015 12.2492C71.8409 12.7679 71.711 13.3864 71.711 14.1054C71.711 14.7978 71.8338 15.3888 72.0795 15.8793C72.326 16.3699 72.693 16.7469 73.1798 17.0081C73.6681 17.2694 74.2675 17.3996 74.9772 17.3996C75.9115 17.3996 76.7512 17.2222 77.4993 16.868L77.1644 15.8496C76.859 15.9756 76.543 16.0755 76.2199 16.1482C75.904 16.2213 75.5805 16.2588 75.2558 16.2602C73.9912 16.2602 73.3238 15.5777 73.2533 14.2143H77.6292V13.8175C77.6292 13.2386 77.5267 12.7085 77.3216 12.2302C77.129 11.7665 76.8019 11.3674 76.3803 11.0816C75.9569 10.7937 75.4295 10.6497 74.7972 10.6497ZM82.2703 10.6497C81.9776 10.6497 81.7155 10.7114 81.487 10.8348C81.2585 10.9565 81.0549 11.1178 80.886 11.3108C80.6916 11.5371 80.5163 11.7784 80.3617 12.0321C80.3377 11.6105 80.2985 11.1898 80.2444 10.7708H78.8139C78.846 11.502 78.8624 12.0474 78.8624 12.4054V17.2785H80.3883V13.0985C80.6935 12.6887 80.9799 12.3939 81.2483 12.2149C81.5263 12.0334 81.855 11.9398 82.1897 11.9468C82.372 11.9468 82.5379 11.9682 82.6866 12.0123L82.8775 10.7228C82.6799 10.6707 82.4758 10.6461 82.2711 10.6497H82.2703ZM83.5176 10.7708L85.9826 17.3341L85.8856 17.5748C85.5467 18.4233 85.0373 18.8468 84.3596 18.8468C84.2196 18.8468 84.0701 18.8339 83.9136 18.8087C83.7571 18.7821 83.6272 18.7547 83.5239 18.7265L83.2445 19.8126C83.3893 19.8606 83.5732 19.904 83.7962 19.9421C84.0192 19.9802 84.2579 20 84.5146 20C85.031 20 85.4716 19.9063 85.8378 19.7212C86.2033 19.5369 86.5217 19.2543 86.7901 18.872C87.0585 18.4904 87.3074 17.9869 87.539 17.3638L90 10.7708H88.4561L87.1978 14.4687C87.0413 14.9394 86.9059 15.4086 86.7901 15.8793C86.7322 15.5457 86.6015 15.0644 86.3989 14.4375L85.1594 10.7708H83.5176ZM74.773 11.7122C75.1728 11.7122 75.4929 11.8417 75.7323 12.1007C75.9718 12.3597 76.108 12.7496 76.1361 13.2683H73.2979C73.3762 12.7534 73.5444 12.365 73.8019 12.103C74.0601 11.8417 74.3848 11.7122 74.773 11.7122ZM37.9726 11.8265C38.403 11.8265 38.7457 11.9895 39.0048 12.3178C39.263 12.6453 39.3913 13.1739 39.3913 13.902C39.3913 14.6866 39.2348 15.2822 38.9234 15.6905C38.6112 16.0979 38.1581 16.3013 37.5634 16.3013C37.3646 16.3013 37.1643 16.2807 36.9624 16.2389C36.7783 16.2026 36.5993 16.1448 36.4295 16.0667V12.5805C36.6564 12.352 36.8959 12.1692 37.1478 12.0321C37.3998 11.8952 37.684 11.8244 37.9726 11.8265ZM45.0067 11.8265C45.4363 11.8265 45.7798 11.9895 46.038 12.3178C46.2963 12.6453 46.4262 13.1739 46.4262 13.902C46.4262 14.6866 46.2705 15.2822 45.9582 15.6905C45.6468 16.0979 45.1929 16.3013 44.5982 16.3013C44.3995 16.3013 44.1984 16.2807 43.9957 16.2389C43.8118 16.2027 43.6331 16.1449 43.4636 16.0667V12.5805C43.6905 12.352 43.9307 12.1692 44.1827 12.0321C44.4347 11.895 44.7085 11.8265 45.0059 11.8265H45.0067ZM60.8723 14.2456C61.1368 14.2456 61.4756 14.2669 61.8935 14.3111V15.5176C61.6908 15.7384 61.4318 15.9235 61.1133 16.072C60.8224 16.2144 60.5022 16.2907 60.1766 16.2952C59.8754 16.2952 59.6367 16.2183 59.4614 16.0637C59.2861 15.9083 59.1985 15.6714 59.1985 15.3492C59.1985 15.0118 59.319 14.7422 59.5608 14.5434C59.8026 14.3438 60.24 14.2456 60.8723 14.2456Z" fill="#191D28"/>
<path fill-rule="evenodd" clip-rule="evenodd" d="M14.2043 0.000761617H5.56137C1.48914 0.000761617 0 1.45022 0 5.41321V13.8266C0 17.7904 1.48914 19.2399 5.56137 19.2399H14.2027C18.2742 19.2399 19.7665 17.7904 19.7665 13.8266V5.41321C19.7665 1.45022 18.2773 0 14.2051 0" fill="#C8102E"/>
<path fill-rule="evenodd" clip-rule="evenodd" d="M47.6923 0C47.7142 0.150811 47.7674 0.29172 47.8519 0.422728C47.9364 0.553736 48.0593 0.66037 48.2197 0.743392C48.3817 0.827176 48.5796 0.86983 48.8167 0.86983C49.0546 0.86983 49.255 0.827176 49.4169 0.743392C49.5789 0.66037 49.7041 0.552974 49.7886 0.422728C49.8732 0.29172 49.9264 0.150811 49.9491 0H49.3935C49.3332 0.317617 49.1407 0.476045 48.8167 0.476045C48.492 0.476045 48.3003 0.317617 48.2416 0H47.6923ZM27.695 1.05949C27.2286 1.05949 26.8225 1.15241 26.4789 1.33826C26.1346 1.52334 25.8725 1.78612 25.6901 2.12659C25.5078 2.46706 25.4163 2.86389 25.4163 3.31785C25.4163 3.75048 25.5023 4.13131 25.6729 4.45731C25.8451 4.78407 26.0916 5.03694 26.4163 5.21746C26.7403 5.39874 27.1253 5.48861 27.5698 5.48861C28.0307 5.48861 28.4305 5.39645 28.7725 5.21213C29.1102 5.03135 29.3849 4.7566 29.5613 4.42303C29.7459 4.0818 29.8383 3.67964 29.8383 3.2173C29.8383 2.78848 29.7538 2.41222 29.584 2.08622C29.422 1.768 29.1658 1.50431 28.8484 1.32912C28.5252 1.14936 28.1418 1.05949 27.695 1.05949ZM37.1791 1.05949C36.9725 1.05949 36.8019 1.1029 36.6666 1.18897C36.5312 1.2758 36.3966 1.41443 36.262 1.60789L35.3433 2.89893H34.9427V1.12042H34.1789V5.42996H34.9427V3.53035H35.4654L36.7847 5.42996H37.6463L35.9991 3.08097L36.809 1.94988C36.8778 1.85315 36.9451 1.78231 37.0093 1.7389C37.0773 1.69411 37.1581 1.67121 37.2401 1.67339C37.3153 1.67339 37.3951 1.69015 37.478 1.72443L37.6369 1.14403C37.4916 1.08642 37.3359 1.05716 37.1791 1.05949ZM43.9064 1.05949C43.44 1.05949 43.0355 1.15241 42.6912 1.33826C42.3477 1.52334 42.0855 1.78612 41.9032 2.12659C41.7201 2.46706 41.6293 2.86389 41.6293 3.31785C41.6293 3.75048 41.7154 4.13131 41.886 4.45731C42.0581 4.78407 42.3046 5.03694 42.6294 5.21746C42.9533 5.39874 43.3368 5.48861 43.7812 5.48861C44.2421 5.48861 44.6444 5.39645 44.9863 5.21213C45.3238 5.03123 45.5981 4.75649 45.7743 4.42303C45.959 4.0818 46.0505 3.67964 46.0505 3.2173C46.0505 2.78848 45.966 2.41222 45.797 2.08622C45.6348 1.76792 45.3783 1.50422 45.0606 1.32912C44.7383 1.14936 44.3532 1.05949 43.9064 1.05949ZM30.0824 1.11966L30.0151 1.74118H31.3892V5.4292H32.1538V1.74195H33.4606L33.531 1.12042L30.0824 1.11966ZM38.23 1.11966V5.4292H38.9961V3.76876C39.2144 3.80836 39.4077 3.82817 39.5767 3.82817C39.8605 3.83377 40.1417 3.77537 40.3984 3.65755C40.6298 3.54954 40.8239 3.37831 40.9571 3.16475C41.0901 2.95148 41.1574 2.70241 41.1574 2.41679C41.1574 1.99558 41.0088 1.67492 40.7114 1.45251C40.4133 1.2301 39.9844 1.11966 39.4242 1.11966H38.23ZM46.9035 1.11966V5.4292H47.7549L49.9788 2.03595C49.9561 2.4206 49.9451 2.76183 49.9451 3.05888V5.4292H50.6541V1.12042H49.7777L47.5866 4.45959C47.6054 4.14274 47.614 3.84873 47.614 3.58062V1.12042L46.9035 1.11966ZM51.3693 1.11966L51.302 1.74118H52.6761V5.4292H53.4407V1.74195H54.7459L54.8163 1.12042H51.3701L51.3693 1.11966ZM55.4658 1.11966V5.4292H58.0317L58.0959 4.80996H56.2296V3.49379H57.8987V2.91949H56.2296V1.73281H58.0012L58.0747 1.12042L55.4658 1.11966ZM60.9122 1.11966V5.4292H62.3551C62.6877 5.4292 62.9725 5.37817 63.2096 5.27611C63.43 5.18816 63.6189 5.03902 63.7527 4.84728C63.8756 4.66448 63.9374 4.45198 63.9374 4.21205C63.9374 4.0064 63.892 3.82588 63.8012 3.67202C63.7114 3.51876 63.5829 3.39032 63.428 3.2988C63.2626 3.20225 63.079 3.13905 62.888 3.11296C63.1306 3.04364 63.327 2.92254 63.4773 2.75116C63.6267 2.57979 63.7019 2.36576 63.7019 2.10983C63.7019 1.80212 63.5845 1.56143 63.3497 1.38396C63.1157 1.20801 62.7628 1.11966 62.2941 1.11966H60.9122ZM27.6527 1.64902C27.9767 1.64902 28.2412 1.72062 28.447 1.86457C28.6535 2.00929 28.803 2.20123 28.8969 2.44345C28.9908 2.68566 29.0378 2.96138 29.0378 3.27062C29.0378 3.58595 28.9846 3.86777 28.8781 4.11227C28.7725 4.35753 28.6121 4.54947 28.3984 4.68962C28.184 4.82977 27.9219 4.89908 27.6144 4.89908C27.3045 4.89908 27.0447 4.82824 26.835 4.68581C26.623 4.54078 26.4601 4.3377 26.367 4.10237C26.2613 3.83524 26.2095 3.55076 26.2144 3.26453C26.2144 2.969 26.2684 2.69861 26.3764 2.45411C26.4844 2.20885 26.6464 2.01386 26.8624 1.86762C27.0783 1.72214 27.3428 1.64902 27.6527 1.64902ZM43.8642 1.64902C44.1881 1.64902 44.4542 1.72062 44.66 1.86457C44.8658 2.00929 45.0153 2.20123 45.1092 2.44345C45.2031 2.68566 45.25 2.96138 45.25 3.27062C45.25 3.58595 45.1968 3.86777 45.0912 4.11227C44.9847 4.35753 44.8251 4.54947 44.6115 4.68962C44.3971 4.82977 44.1349 4.89908 43.8274 4.89908C43.5175 4.89908 43.2577 4.82824 43.048 4.68581C42.8361 4.54078 42.6732 4.3377 42.5801 4.10237C42.4743 3.83524 42.4225 3.55076 42.4275 3.26453C42.4275 2.969 42.4815 2.69861 42.5894 2.45411C42.6974 2.20885 42.8586 2.01386 43.0746 1.86762C43.2914 1.72214 43.5535 1.64902 43.8642 1.64902ZM61.6587 1.66959H62.1658C62.4146 1.66959 62.604 1.713 62.7362 1.80059C62.8677 1.88819 62.9334 2.01996 62.9334 2.19666C62.9343 2.31756 62.9004 2.4363 62.8356 2.53942C62.7678 2.64615 62.6708 2.7324 62.5555 2.78848C62.4342 2.84942 62.2941 2.88065 62.1352 2.88065H61.6579L61.6587 1.66959ZM38.9961 1.68482H39.4116C39.734 1.68482 39.9774 1.74271 40.1441 1.86C40.31 1.9773 40.3929 2.16848 40.3929 2.43431C40.3929 2.69632 40.3115 2.89893 40.148 3.04288C39.9852 3.18684 39.7481 3.25844 39.4359 3.25844C39.3342 3.25844 39.1878 3.2432 38.9961 3.21426V1.68482ZM61.6579 3.43133H62.172C62.496 3.43133 62.744 3.49532 62.9162 3.62023C63.0884 3.74514 63.1744 3.92718 63.1744 4.16787C63.1744 4.39409 63.0962 4.56851 62.9405 4.69266C62.7847 4.81682 62.5492 4.87851 62.2331 4.87851H61.6587L61.6579 3.43133Z" fill="white"/>
<path fill-rule="evenodd" clip-rule="evenodd" d="M8.62448 11.1585H9.41717L9.01965 10.2582L8.62448 11.1585ZM8.42885 11.6117L8.19409 12.1357H7.65885L8.79742 9.62222H9.25989L10.3945 12.1357H9.84443L9.61202 11.6117H8.42885ZM17.0444 12.1342H17.5616V9.6207H17.0444V12.1342ZM14.9848 11.0549H15.9387V10.5964H14.9848V10.0815H16.3699V9.62298H14.4683V12.1357H16.4192V11.6772H14.9848V11.0549ZM12.9291 11.352L12.3422 9.62146H11.9142L11.3273 11.3512L10.7561 9.62222H10.1989L11.0988 12.1373H11.5331L12.1208 10.4852L12.7085 12.1373H13.1467L14.045 9.62298H13.5011L12.9291 11.352ZM6.86929 11.0618C6.86929 11.4708 6.66035 11.6894 6.28161 11.6894C5.90053 11.6894 5.69081 11.4639 5.69081 11.0443V9.62298H5.16652V11.0618C5.16652 11.7686 5.5703 12.1746 6.27457 12.1746C6.98588 12.1746 7.39358 11.7618 7.39358 11.0405V9.62146H6.86929V11.0618ZM3.91527 9.62222H4.43956V12.1373H3.91527V11.1159H2.73132V12.1365H2.20703V9.62146H2.73132V10.6368H3.91527V9.6207V9.62222ZM9.88434 6.41939C9.01196 6.41838 8.17561 6.08061 7.55875 5.48018C6.94188 4.87975 6.59488 4.06569 6.59384 3.21655H7.05866C7.05866 4.73228 8.32634 5.96619 9.88434 5.96619C11.4416 5.96619 12.7092 4.73228 12.7092 3.21655H13.1748C13.1738 4.06569 12.8268 4.87975 12.2099 5.48018C11.5931 6.08061 10.7567 6.41838 9.88434 6.41939Z" fill="white"/>
</g>
<defs>
<clipPath id="clip0_59756_951">
<rect width="90" height="20" fill="white"/>
</clipPath>
</defs>
</svg>
