<svg width="23" height="14" viewBox="0 0 23 14" fill="none" xmlns="http://www.w3.org/2000/svg">
<path fill-rule="evenodd" clip-rule="evenodd" d="M21.7124 0.902808C21.8669 0.382457 21.7124 0 20.9771 0H18.546C17.9278 0 17.643 0.330351 17.4885 0.694737C17.4885 0.694737 16.2521 3.73912 14.5006 5.71667C13.934 6.28912 13.6765 6.47105 13.3674 6.47105C13.2128 6.47105 12.9891 6.28912 12.9891 5.76877V0.902808C12.9891 0.278246 12.8098 0 12.2945 0H8.4742C8.088 0 7.85565 0.289825 7.85565 0.564562C7.85565 1.15667 8.7312 1.29316 8.8215 2.95842V6.57544C8.8215 7.36842 8.6798 7.51228 8.3707 7.51228C7.54655 7.51228 5.54192 4.45403 4.35275 0.954912C4.11971 0.274737 3.88598 0 3.26465 0H0.833528C0.138921 0 0 0.330351 0 0.694737C0 1.34526 0.824324 4.57193 3.8377 8.8393C5.84685 11.7533 8.67703 13.3333 11.2526 13.3333C12.7981 13.3333 12.9891 12.9825 12.9891 12.3781V10.1754C12.9891 9.47368 13.1355 9.33368 13.6247 9.33368C13.9856 9.33368 14.6036 9.51579 16.0461 10.9209C17.6944 12.586 17.966 13.3333 18.8933 13.3333H21.3244C22.019 13.3333 22.3663 12.9825 22.1659 12.29C21.9468 11.5998 21.1598 10.5988 20.1155 9.41175C19.5488 8.73509 18.6988 8.00649 18.4415 7.64228C18.0808 7.17386 18.1838 6.96579 18.4415 6.54965C18.4415 6.54965 21.4033 2.33421 21.7124 0.902983V0.902808Z" fill="#302D38"/>
</svg>
