<svg width="223" height="25" viewBox="0 0 223 25" fill="none" xmlns="http://www.w3.org/2000/svg">
<path d="M-9.75728e-05 19.04V3.88622e-05H12.9639V3.94804H4.2279V19.04H-9.75728e-05ZM17.9661 19.04H14.0181V5.32004H17.9101V13.72L23.0061 5.32004H27.1221V19.04H23.2301V10.556L17.9661 19.04ZM28.9663 15.54H30.4223C30.833 15.204 31.1597 14.7654 31.4023 14.224C31.645 13.664 31.785 13.0107 31.8223 12.264C31.8597 11.4987 31.8877 10.5374 31.9063 9.38004C31.925 8.22271 31.9437 6.86937 31.9623 5.32004H43.1903V15.54H45.2063V22.792H41.2863V19.04H32.8863V22.792H28.9663V15.54ZM35.5183 12.432C35.4997 13.104 35.397 13.7014 35.2103 14.224C35.0237 14.728 34.7997 15.1667 34.5383 15.54H39.1863V8.82004H35.5743C35.5743 9.45471 35.565 10.1174 35.5463 10.808C35.5463 11.48 35.537 12.0214 35.5183 12.432ZM47.578 19.04V3.88622e-05H64.294V19.04H60.094V3.94804H51.806V19.04H47.578ZM74.208 19.32C72.08 19.32 70.3907 18.6854 69.14 17.416C67.8893 16.128 67.264 14.3734 67.264 12.152C67.264 9.93071 67.8893 8.19471 69.14 6.94404C70.3907 5.67471 72.08 5.04004 74.208 5.04004C76.3733 5.04004 78.072 5.67471 79.304 6.94404C80.536 8.19471 81.152 9.93071 81.152 12.152C81.152 14.3734 80.536 16.128 79.304 17.416C78.072 18.6854 76.3733 19.32 74.208 19.32ZM74.208 16.016C75.1227 16.016 75.8507 15.6894 76.392 15.036C76.9333 14.3827 77.204 13.4214 77.204 12.152C77.204 10.8827 76.9333 9.93071 76.392 9.29604C75.8507 8.66137 75.1227 8.34404 74.208 8.34404C73.312 8.34404 72.584 8.66137 72.024 9.29604C71.4827 9.91204 71.212 10.864 71.212 12.152C71.212 13.4214 71.4827 14.3827 72.024 15.036C72.584 15.6894 73.312 16.016 74.208 16.016ZM84.1093 19.04V3.88622e-05H88.3373V7.50404H90.6053L95.9253 3.88622e-05H100.881L94.0493 9.26804L101.077 19.04H95.9533L90.6053 11.424H88.3373V19.04H84.1093ZM103.022 24.472V5.32004H106.942V6.94404C107.353 6.38404 107.913 5.92671 108.622 5.57204C109.331 5.21737 110.143 5.04004 111.058 5.04004C111.879 5.04004 112.635 5.18937 113.326 5.48804C114.035 5.78671 114.642 6.23471 115.146 6.83204C115.669 7.4107 116.079 8.13871 116.378 9.01604C116.677 9.89337 116.826 10.9107 116.826 12.068C116.826 13.2627 116.667 14.3174 116.35 15.232C116.033 16.128 115.594 16.884 115.034 17.5C114.474 18.0974 113.811 18.5547 113.046 18.872C112.281 19.1707 111.459 19.32 110.582 19.32C109.835 19.32 109.154 19.2174 108.538 19.012C107.941 18.788 107.437 18.48 107.026 18.088V24.472H103.022ZM107.026 13.272C107.026 14.056 107.287 14.7 107.81 15.204C108.333 15.708 109.033 15.96 109.91 15.96C110.806 15.96 111.506 15.6334 112.01 14.98C112.533 14.308 112.794 13.3654 112.794 12.152C112.794 10.976 112.533 10.0614 112.01 9.40804C111.506 8.73604 110.806 8.40004 109.91 8.40004C109.051 8.40004 108.351 8.66137 107.81 9.18404C107.287 9.70671 107.026 10.3974 107.026 11.256V13.272ZM127.464 19.04V17.5C127.035 18.0974 126.475 18.5547 125.784 18.872C125.094 19.1707 124.328 19.32 123.488 19.32C122.182 19.32 121.08 18.9654 120.184 18.256C119.288 17.5467 118.84 16.5387 118.84 15.232C118.84 13.7947 119.298 12.7587 120.212 12.124C121.146 11.4707 122.396 11.088 123.964 10.976C124.58 10.9387 125.168 10.92 125.728 10.92C126.307 10.92 126.83 10.9294 127.296 10.948V9.96804C127.296 9.35204 127.11 8.90404 126.736 8.62404C126.363 8.32537 125.84 8.17604 125.168 8.17604C124.571 8.17604 124.076 8.32537 123.684 8.62404C123.311 8.90404 123.059 9.36137 122.928 9.99604L119.288 9.43604C119.494 8.18537 120.1 7.14004 121.108 6.30004C122.116 5.46004 123.488 5.04004 125.224 5.04004C126.064 5.04004 126.848 5.12404 127.576 5.29204C128.304 5.46004 128.93 5.74004 129.452 6.13204C129.994 6.50537 130.414 7.01871 130.712 7.67204C131.03 8.32537 131.188 9.12804 131.188 10.08V19.04H127.464ZM127.296 13.468C126.942 13.4494 126.531 13.44 126.064 13.44C125.598 13.44 125.15 13.4494 124.72 13.468C124.16 13.5054 123.694 13.6454 123.32 13.888C122.947 14.112 122.76 14.4574 122.76 14.924C122.76 15.3907 122.928 15.7547 123.264 16.016C123.619 16.2587 124.076 16.38 124.636 16.38C125.439 16.38 126.083 16.1934 126.568 15.82C127.054 15.4467 127.296 14.952 127.296 14.336V13.468ZM143.063 13.86L146.703 14.336C146.423 15.848 145.751 17.0614 144.687 17.976C143.641 18.872 142.223 19.32 140.431 19.32C138.377 19.32 136.735 18.7134 135.503 17.5C134.271 16.2867 133.655 14.5227 133.655 12.208C133.655 11.0507 133.823 10.024 134.159 9.12804C134.495 8.23204 134.961 7.48537 135.559 6.88804C136.156 6.29071 136.875 5.83337 137.715 5.51604C138.555 5.19871 139.469 5.04004 140.459 5.04004C141.429 5.04004 142.279 5.17071 143.007 5.43204C143.735 5.69337 144.351 6.0387 144.855 6.46804C145.359 6.89737 145.76 7.4107 146.059 8.00804C146.357 8.58671 146.563 9.19337 146.675 9.82804L143.091 10.5C142.96 9.92137 142.699 9.41737 142.307 8.98804C141.915 8.54004 141.317 8.31604 140.515 8.31604C139.619 8.31604 138.909 8.65204 138.387 9.32404C137.864 9.97737 137.603 10.92 137.603 12.152C137.603 13.4027 137.845 14.364 138.331 15.036C138.835 15.708 139.544 16.044 140.459 16.044C141.261 16.044 141.859 15.8387 142.251 15.428C142.661 15.0174 142.932 14.4947 143.063 13.86ZM155.228 19.32C153.1 19.32 151.41 18.6854 150.16 17.416C148.909 16.128 148.284 14.3734 148.284 12.152C148.284 9.93071 148.909 8.19471 150.16 6.94404C151.41 5.67471 153.1 5.04004 155.228 5.04004C157.393 5.04004 159.092 5.67471 160.324 6.94404C161.556 8.19471 162.172 9.93071 162.172 12.152C162.172 14.3734 161.556 16.128 160.324 17.416C159.092 18.6854 157.393 19.32 155.228 19.32ZM155.228 16.016C156.142 16.016 156.87 15.6894 157.412 15.036C157.953 14.3827 158.224 13.4214 158.224 12.152C158.224 10.8827 157.953 9.93071 157.412 9.29604C156.87 8.66137 156.142 8.34404 155.228 8.34404C154.332 8.34404 153.604 8.66137 153.044 9.29604C152.502 9.91204 152.232 10.864 152.232 12.152C152.232 13.4214 152.502 14.3827 153.044 15.036C153.604 15.6894 154.332 16.016 155.228 16.016ZM163.232 8.82004V5.32004H175.832V8.82004H171.548V19.04H167.516V8.82004H163.232ZM190.07 13.048H180.83C180.905 14.112 181.204 14.9054 181.726 15.428C182.249 15.9507 182.94 16.212 183.798 16.212C184.62 16.212 185.226 16.0254 185.618 15.652C186.029 15.26 186.3 14.868 186.43 14.476L189.986 15.148C189.856 15.6707 189.632 16.184 189.314 16.688C189.016 17.192 188.614 17.64 188.11 18.032C187.606 18.4054 186.99 18.7134 186.262 18.956C185.553 19.1987 184.722 19.32 183.77 19.32C181.642 19.32 179.972 18.6854 178.758 17.416C177.564 16.1467 176.966 14.4014 176.966 12.18C176.966 11.004 177.144 9.96804 177.498 9.07204C177.853 8.17604 178.329 7.42937 178.926 6.83204C179.542 6.23471 180.261 5.78671 181.082 5.48804C181.904 5.18937 182.781 5.04004 183.714 5.04004C185.805 5.04004 187.382 5.69337 188.446 7.00004C189.529 8.30671 190.07 10.0147 190.07 12.124V13.048ZM183.714 8.14804C183.042 8.14804 182.454 8.34404 181.95 8.73604C181.446 9.10937 181.101 9.72537 180.914 10.584H186.29C186.216 9.78137 185.954 9.17471 185.506 8.76404C185.058 8.35337 184.461 8.14804 183.714 8.14804ZM192.318 19.04V14.868H196.322V19.04H192.318ZM199.381 19.04V5.32004H203.245V7.00004C203.768 6.30937 204.347 5.86137 204.981 5.65604C205.635 5.43204 206.269 5.32004 206.885 5.32004H207.921V8.84804H206.633C205.719 8.84804 204.944 9.02537 204.309 9.38004C203.693 9.73471 203.385 10.276 203.385 11.004V19.04H199.381ZM218.843 19.04V17.472C218.377 17.9947 217.761 18.4334 216.995 18.788C216.249 19.1427 215.399 19.32 214.447 19.32C213.029 19.32 211.881 18.9094 211.003 18.088C210.126 17.2667 209.687 16.072 209.687 14.504V5.32004H213.691V13.58C213.691 14.364 213.897 14.952 214.307 15.344C214.737 15.7174 215.343 15.904 216.127 15.904C216.874 15.904 217.49 15.6894 217.975 15.26C218.479 14.8307 218.731 14.2987 218.731 13.664V5.32004H222.735V19.04H218.843Z" fill="#191D28"/>
</svg>
